<svg height="512pt" viewBox="0 0 512 511" width="512pt" xmlns="http://www.w3.org/2000/svg" xmlns:xlink="http://www.w3.org/1999/xlink"><linearGradient id="linear0" gradientUnits="userSpaceOnUse" x1="255.9998357828" x2="255.9998357828" y1=".5002000022" y2="510.5611994795"><stop offset="0" stop-color="#2af598"/><stop offset="1" stop-color="#009efd"/></linearGradient><path d="m512 222.816406-256-222.316406-256 222.316406 26.207031 30.175782 21.96875-19.078126v216.695313c0 33.058594 26.890625 59.953125 59.949219 59.953125h295.75c33.058594 0 59.949219-26.894531 59.949219-59.953125v-216.695313l21.96875 19.078126zm-88.140625 227.792969c0 11.019531-8.964844 19.984375-19.984375 19.984375h-295.75c-11.019531 0-19.984375-8.964844-19.984375-19.984375v-251.402344l167.859375-145.773437 167.859375 145.773437zm-187.84375-253.785156v35.5c-7.320313 1.890625-14.230469 4.8125-20.585937 8.574219l-25.375-25.375-28.257813 28.261718 25.371094 25.371094c-3.761719 6.355469-6.679688 13.265625-8.570313 20.589844h-36.503906v39.964844h36.503906c1.890625 7.324218 4.808594 14.234374 8.570313 20.589843l-25.371094 25.371094 28.257813 28.261719 25.375-25.375c6.355468 3.761718 13.265624 6.679687 20.585937 8.574218v35.5h39.96875v-35.5c7.320313-1.894531 14.230469-4.8125 20.585937-8.574218l25.375 25.375 28.257813-28.261719-25.371094-25.371094c3.761719-6.355469 6.679688-13.265625 8.570313-20.589843h36.503906v-39.964844h-36.503906c-1.890625-7.324219-4.808594-14.234375-8.570313-20.589844l25.371094-25.371094-28.257813-28.261718-25.375 25.375c-6.355468-3.761719-13.265624-6.679688-20.585937-8.570313v-35.503906zm19.984375 72.9375c22.980469 0 41.496094 19.5 39.867188 42.824219-1.375 19.6875-17.324219 35.632812-37.011719 37.011718-23.324219 1.628906-42.820313-16.886718-42.820313-39.867187 0-22.074219 17.890625-39.96875 39.964844-39.96875zm0 0" fill="url(#linear0)"/></svg>